<svg width="24" height="20" viewBox="0 0 24 20" fill="none" xmlns="http://www.w3.org/2000/svg">
<path d="M21 12.25V2.5C21 2.10218 20.842 1.72064 20.5607 1.43934C20.2794 1.15804 19.8978 1 19.5 1H4.5C4.10218 1 3.72064 1.15804 3.43934 1.43934C3.15804 1.72064 3 2.10218 3 2.5V12.25H21Z" stroke="#14141F" stroke-width="1.5" stroke-linecap="round" stroke-linejoin="round"/>
<path d="M23.1209 16.891C23.2224 17.1194 23.2652 17.3695 23.2454 17.6186C23.2257 17.8678 23.144 18.108 23.0078 18.3175C22.8716 18.5271 22.6851 18.6993 22.4655 18.8184C22.2458 18.9376 21.9999 19 21.7499 19H2.24995C2.00003 19 1.75407 18.9376 1.53441 18.8184C1.31475 18.6993 1.12834 18.5271 0.992132 18.3175C0.855921 18.108 0.774222 17.8678 0.754455 17.6186C0.734689 17.3695 0.777482 17.1194 0.878947 16.891L2.99995 12.25H20.9999L23.1209 16.891Z" stroke="#14141F" stroke-width="1.5" stroke-linecap="round" stroke-linejoin="round"/>
<path d="M10.5 16H13.5" stroke="#14141F" stroke-width="1.5" stroke-linecap="square" stroke-linejoin="round"/>
</svg>
