<svg width="24" height="24" viewBox="0 0 24 24" fill="none" xmlns="http://www.w3.org/2000/svg">
<path d="M6.29489 14.4452V18.7401H2" stroke="white" stroke-width="1.5" stroke-linecap="square"/>
<path d="M6.0248 18.7429C4.54828 17.1993 3.64757 15.1948 3.4738 13.0658C3.30002 10.9369 3.86376 8.81286 5.07043 7.05026C6.27709 5.28765 8.05326 3.99368 10.1009 3.38545C12.1486 2.77722 14.3431 2.89175 16.3163 3.70982" stroke="white" stroke-width="1.5" stroke-linecap="round" stroke-linejoin="round"/>
<path d="M5.47812 19.2565C5.76448 19.5558 6.23924 19.5663 6.53852 19.2799C6.83781 18.9936 6.84829 18.5188 6.56193 18.2195L5.47812 19.2565ZM9.44636 20.1969L8.75395 19.9087L8.17754 21.2935L8.86996 21.5817L9.44636 20.1969ZM6.56193 18.2195C5.1037 16.6955 4.26211 14.685 4.19977 12.5766L2.70043 12.6209C2.77374 15.1002 3.76337 17.4644 5.47812 19.2565L6.56193 18.2195ZM4.19977 12.5766C4.13743 10.4682 4.85877 8.41155 6.2244 6.80399L5.08121 5.83284C3.47535 7.72319 2.62712 10.1417 2.70043 12.6209L4.19977 12.5766ZM6.2244 6.80399C7.59004 5.19643 9.50304 4.15208 11.5938 3.87274L11.3951 2.38595C8.9366 2.71443 6.68708 3.94249 5.08121 5.83284L6.2244 6.80399ZM11.5938 3.87274C13.6845 3.5934 15.8046 4.09889 17.5443 5.29154L18.3925 4.05433C16.3467 2.65188 13.8536 2.05747 11.3951 2.38595L11.5938 3.87274ZM17.5443 5.29154C19.2841 6.48419 20.5201 8.27935 21.0135 10.3302L22.4718 9.9793C21.8917 7.56774 20.4383 5.45679 18.3925 4.05433L17.5443 5.29154ZM21.0135 10.3302C21.5068 12.381 21.2226 14.5418 20.2156 16.3953L21.5336 17.1114C22.7177 14.9319 23.052 12.3909 22.4718 9.9793L21.0135 10.3302ZM20.2156 16.3953C19.2086 18.2487 17.5505 19.6632 15.5614 20.3653L16.0607 21.7797C18.3997 20.9541 20.3495 19.2908 21.5336 17.1114L20.2156 16.3953ZM15.5614 20.3653C13.5724 21.0674 11.3937 21.0074 9.44636 20.1969L8.86996 21.5817C11.1599 22.5348 13.7218 22.6054 16.0607 21.7797L15.5614 20.3653Z" fill="white"/>
</svg>
