<svg width="16" height="17" viewBox="0 0 16 17" fill="none" xmlns="http://www.w3.org/2000/svg">
<g clip-path="url(#clip0_262_3449)">
<path d="M9.5 16H6.5C6.23478 16 5.98043 15.8946 5.79289 15.7071C5.60536 15.5196 5.5 15.2652 5.5 15V13H10.5V15C10.5 15.2652 10.3946 15.5196 10.2071 15.7071C10.0196 15.8946 9.76522 16 9.5 16Z" stroke="#838895" stroke-width="1.5" stroke-linecap="round" stroke-linejoin="round"/>
<path d="M6.5 1H9.5C9.76522 1 10.0196 1.10536 10.2071 1.29289C10.3946 1.48043 10.5 1.73478 10.5 2V4H5.5V2C5.5 1.73478 5.60536 1.48043 5.79289 1.29289C5.98043 1.10536 6.23478 1 6.5 1V1Z" stroke="#838895" stroke-width="1.5" stroke-linecap="round" stroke-linejoin="round"/>
<path d="M10.5 4H5.5C4.39543 4 3.5 4.89543 3.5 6V11C3.5 12.1046 4.39543 13 5.5 13H10.5C11.6046 13 12.5 12.1046 12.5 11V6C12.5 4.89543 11.6046 4 10.5 4Z" stroke="#838895" stroke-width="1.5" stroke-linecap="round" stroke-linejoin="round"/>
</g>
<defs>
<clipPath id="clip0_262_3449">
<rect width="16" height="16" fill="white" transform="translate(0 0.5)"/>
</clipPath>
</defs>
</svg>
